<mxfile host="app.diagrams.net" modified="2023-08-06T11:40:20.596Z" agent="Mozilla/5.0 (Windows NT 10.0; Win64; x64) AppleWebKit/537.36 (KHTML, like Gecko) Chrome/115.0.0.0 Safari/537.36" version="21.6.6" etag="EU0QidWelsu4GufxMwY7" type="github">
  <diagram name="Page-1" id="gekbCmnUxhCRqNAEIIUT">
    <mxGraphModel>
      <root>
        <mxCell id="0" />
        <mxCell id="1" parent="0" />
      </root>
    </mxGraphModel>
  </diagram>
</mxfile>
